<svg xmlns="http://www.w3.org/2000/svg" xmlns:xlink="http://www.w3.org/1999/xlink" preserveAspectRatio="xMidYMid" width="17" height="18" viewBox="0 0 17 18">
  <defs>
    <style>
      .cls-1 {
        fill: #fff;
        fill-rule: evenodd;
      }
    </style>
  </defs>
  <path d="M15.818,17.993 L1.182,17.993 C0.528,17.993 0.000,17.453 0.000,16.786 L0.000,11.469 L2.360,11.469 L2.360,15.579 L14.640,15.579 L14.640,11.469 L17.000,11.469 L17.000,16.786 C17.000,17.454 16.472,17.993 15.818,17.993 ZM8.849,11.097 C8.560,11.394 8.284,11.062 8.284,11.062 L4.905,6.883 C4.905,6.883 4.391,6.386 4.948,6.386 C5.506,6.386 6.852,6.386 6.852,6.386 C6.852,6.386 6.852,6.052 6.852,5.537 C6.852,4.067 6.852,1.393 6.852,0.303 C6.852,0.303 6.777,0.007 7.213,0.007 C7.653,0.007 9.578,0.007 9.893,0.007 C10.207,0.007 10.200,0.256 10.200,0.256 C10.200,1.313 10.200,4.080 10.200,5.502 C10.200,5.962 10.200,6.261 10.200,6.261 C10.200,6.261 11.280,6.261 11.957,6.261 C12.634,6.261 12.125,6.781 12.125,6.781 C12.125,6.781 9.250,10.687 8.849,11.097 Z" class="cls-1"/>
</svg>
