<svg xmlns="http://www.w3.org/2000/svg" xmlns:xlink="http://www.w3.org/1999/xlink" preserveAspectRatio="xMidYMid" width="20" height="20" viewBox="0 0 20 20">
  <defs>
    <style>
      .cls-1 {
        fill: #354b60;
        fill-rule: evenodd;
      }
    </style>
  </defs>
  <path d="M18.889,13.889 C17.556,13.889 16.222,13.667 14.889,13.222 C14.556,13.111 14.111,13.222 13.778,13.444 L11.333,15.889 C8.222,14.333 5.667,11.667 4.000,8.556 L6.444,6.111 C6.778,5.778 6.889,5.333 6.667,5.000 C6.333,3.778 6.111,2.444 6.111,1.111 C6.111,0.444 5.667,-0.000 5.000,-0.000 L1.111,-0.000 C0.444,-0.000 -0.000,0.444 -0.000,1.111 C-0.000,11.556 8.444,20.000 18.889,20.000 C19.556,20.000 20.000,19.556 20.000,18.889 L20.000,15.000 C20.000,14.333 19.556,13.889 18.889,13.889 ZM17.778,10.000 L20.000,10.000 C20.000,4.444 15.556,-0.000 10.000,-0.000 L10.000,2.222 C14.333,2.222 17.778,5.667 17.778,10.000 ZM13.333,10.000 L15.556,10.000 C15.556,6.889 13.111,4.444 10.000,4.444 L10.000,6.667 C11.889,6.667 13.333,8.111 13.333,10.000 Z" class="cls-1"/>
</svg>
